inDegrees=yes
name=ik_S48_A02_T02
DataType=double
version=3
OpenSimVersion=4.3-2021-08-27-4bc7ad9
endheader
time	pelvis_tilt	pelvis_list	pelvis_rotation	pelvis_tx	pelvis_ty	pelvis_tz	hip_flexion_r	hip_adduction_r	hip_rotation_r	knee_angle_r	knee_angle_r_beta	ankle_angle_r	subtalar_angle_r	mtp_angle_r	hip_flexion_l	hip_adduction_l	hip_rotation_l	knee_angle_l	knee_angle_l_beta	ankle_angle_l	subtalar_angle_l	mtp_angle_l	lumbar_extension	lumbar_bending	lumbar_rotation	arm_flex_r	arm_add_r	arm_rot_r	elbow_flex_r	pro_sup_r	wrist_flex_r	wrist_dev_r	arm_flex_l	arm_add_l	arm_rot_l	elbow_flex_l	pro_sup_l	wrist_flex_l	wrist_dev_l
0	0	0	0	0	0.9399999999999999	0	0	0	0	0	0	0	0	0	0	0	0	0	0	0	0	0	0	0	0	0	0	0	0	89.99999999963507	0	0	0	0	0	0	89.99999999869995	0	0
0.02	-1.479172588258341	3.078562626399723	100.3505592267566	0	0.9399999999999999	0	-7.557838331270095	-4.381537644128938	-6.457738575392925	-2.051191014378299	-0.03580003678822366	0	0	0	-4.565081917713987	-5.951218405245442	-7.412121451213467	3.351224081835985	0.05848989420016183	0	0	0	0	0	0	2.131844757969322	-2.131844757969321	0.3795758887524054	10.5025391109372	89.62042413318444	0	0	2.131844757969322	-2.131844757969321	0.3795758887524054	10.5025391109372	89.62042413232045	0	0
0.04	-1.434241916191492	2.846139852564191	100.4313867282395	0	0.9399999999999999	0	-7.237516998963464	-4.37674179942286	-6.630695963360384	-1.980054605256617	-0.0345584722310046	0	0	0	-4.405007948328924	-6.048142662215524	-7.65909481475	3.102629101627169	0.05415109329158786	0	0	0	0	0	0	2.137582045367365	-2.137582045367363	0.3806972560643012	10.54870231221598	89.61930276593959	0	0	2.137582045367365	-2.137582045367363	0.3806972560643012	10.54870231221598	89.61930276507584	0	0
0.06	-1.291656764025309	2.785452153086739	100.4808060551518	0	0.9399999999999999	0	-7.062910766750695	-4.253081982873539	-6.7551526706037	-1.878461785822193	-0.03278534303548981	0	0	0	-4.48844991921113	-6.182918559266158	-7.667794359577543	2.666874333781376	0.04654573786141526	0	0	0	0	0	0	2.143549632337494	-2.143549632337492	0.3818428860100536	10.59280669438123	89.61815713606211	0	0	2.143549632337494	-2.143549632337492	0.3818428860100536	10.59280669438123	89.61815713519854	0	0
0.08	-1.287757298259824	2.864151496066347	100.5062894119596	0	0.9399999999999999	0	-7.0570410694172	-4.259809461504206	-6.902863895865169	-1.809898505248394	-0.03158868804350835	0	0	0	-4.742579835578721	-6.111888855430894	-7.370608839569319	2.101145895483819	0.0366719139409573	0	0	0	0	0	0	2.14992570561428	-2.149925705614279	0.3830911337895907	10.64422948904422	89.61690888835722	0	0	2.14992570561428	-2.149925705614279	0.3830911337895907	10.64422948904422	89.61690888749398	0	0
0.1	-1.358287358623289	2.907081307425884	100.3186401488133	0	0.9399999999999999	0	-6.990299934170014	-4.323878315484799	-6.795078028279406	-1.780797034049224	-0.03108077155390852	0	0	0	-4.81411611057814	-6.031430127429365	-7.571094436399989	1.927799729998854	0.03364645260753771	0	0	0	0	0	0	2.153758528420486	-2.153758528420484	0.3838377087303331	10.67440865419262	89.61616231346106	0	0	2.153758528420486	-2.153758528420484	0.3838377087303331	10.67440865419262	89.61616231259798	0	0
0.12	-1.472541823919759	2.904896997514983	100.0675907719987	0	0.9399999999999999	0	-6.863608133660559	-4.458213066935449	-6.63773450638861	-1.708528771588202	-0.02981945242926827	0	0	0	-5.168858762216785	-5.787188066354275	-7.172107739034746	1.217313147529006	0.02124612245219662	0	0	0	0	0	0	2.163890892673355	-2.163890892673353	0.3858221476121505	10.75599743426613	89.61417787469797	0	0	2.163890892673355	-2.163890892673353	0.3858221476121505	10.75599743426613	89.61417787383523	0	0
0.14	-1.514464965136301	2.777728579430852	99.73745037330082	0	0.9399999999999999	0	-6.604295613082229	-4.544762227063936	-6.392476453899887	-1.643125408089235	-0.02867794839433262	0	0	0	-5.083921116692928	-5.611643307145207	-6.965074543173251	0.9475300945022207	0.01653751991079677	0	0	0	0	0	0	2.169777066895678	-2.169777066895676	0.3869737627367371	10.80303969382141	89.61302625964227	0	0	2.169777066895678	-2.169777066895676	0.3869737627367371	10.80303969382141	89.61302625877975	0	0
0.16	-1.426736996384084	2.52375778511225	99.54616146890872	0	0.9399999999999999	0	-6.200324446967366	-4.502508767526629	-6.351224275673282	-1.532277247873898	-0.0267432830287968	0	0	0	-4.850013913694602	-5.568816942397976	-6.696916975794119	0.7026992578184298	0.01226441570025211	0	0	0	0	0	0	2.175711217911238	-2.175711217911236	0.3881349171986895	10.85037818689945	89.61186510524972	0	0	2.175711217911238	-2.175711217911236	0.3881349171986895	10.85037818689945	89.61186510438749	0	0
0.18	-1.323742958618831	2.267371614087643	99.49489371508788	0	0.9399999999999999	0	-5.823197421827434	-4.452506835941724	-6.350859418363635	-1.468978281644007	-0.0256385076549765	0	0	0	-4.587631156991741	-5.59084546652177	-6.553487299664416	0.5845339113942767	0.01020204134339093	0	0	0	0	0	0	2.17943109700305	-2.179431097003048	0.3888605626891147	10.87955772688267	89.61113945980267	0	0	2.17943109700305	-2.179431097003048	0.3888605626891147	10.87955772688267	89.61113945894063	0	0
0.2	-1.240654194785379	2.155208539765597	99.45683860347641	0	0.9399999999999999	0	-5.615349881778372	-4.382035745753729	-6.310266610712166	-1.388249828360618	-0.02422953034513893	0	0	0	-4.457873555628889	-5.624885763513884	-6.547097957193296	0.5558116872064047	0.009700743962816605	0	0	0	0	0	0	2.363561955409648	-2.363561955409646	0.4228849997718312	11.37048728556455	89.57711502472176	0	0	2.363561955409648	-2.363561955409646	0.4228849997718312	11.37048728556455	89.57711502386606	0	0
0.22	-1.196151904456854	2.163051663558307	99.38856253222983	0	0.9399999999999999	0	-5.574992839955894	-4.370757794576991	-6.234468450768266	-1.425327972991718	-0.02487666604948228	0	0	0	-4.473249519024958	-5.672102323213075	-6.619437966761249	0.5014402143679975	0.008751782742627733	0	0	0	0	0	0	2.544317261516883	-2.544317261516881	0.4559765435785043	11.81239338782091	89.54402348285714	0	0	2.544317261516883	-2.544317261516881	0.4559765435785043	11.81239338782091	89.54402348200767	0	0
0.24	-1.204996637197884	2.181156995249539	99.33819961062687	0	0.9399999999999999	0	-5.531413880191745	-4.418363947206698	-6.232758945545316	-1.262396252574926	-0.02203297107227041	0	0	0	-4.448824493460313	-5.669907660297158	-6.687218513174209	0.6533238304457947	0.01140265192302029	0	0	0	0	0	0	3.477884238124527	-3.477884238124525	0.6275491473036998	14.85593010908764	89.37245088921485	0	0	3.477884238124527	-3.477884238124525	0.6275491473036998	14.85593010908764	89.37245088839751	0	0
0.26	-1.241365585571385	2.326501475804593	99.27742380432078	0	0.9399999999999999	0	-5.670506450873378	-4.429792754796411	-6.141111228053325	-1.400298087078102	-0.02443981212889114	0	0	0	-4.66609258750672	-5.645126594054388	-6.772429943969061	0.5034994027121793	0.008787722359152397	0	0	0	0	0	0	3.529549405564384	-3.529549405564382	0.6369074882773479	15.01465035396677	89.36309254878928	0	0	3.529549405564384	-3.529549405564382	0.6369074882773479	15.01465035396677	89.36309254797381	0	0
0.28	-1.250445001561471	2.339680263472165	99.20626927719468	0	0.9399999999999999	0	-5.639285853844448	-4.440578700346559	-6.051294565249182	-1.490081248424594	-0.02600682390723673	0	0	0	-4.719863291425125	-5.632395918798846	-6.891076753454043	0.3828158258543866	0.006681396589900281	0	0	0	0	0	0	3.575748358697961	-3.575748358697959	0.6450604375667868	15.10547587974202	89.35493959997402	0	0	3.575748358697961	-3.575748358697959	0.6450604375667868	15.10547587974202	89.35493959915995	0	0
